# xmcd
#
# Track frame offsets:
#	150
#	55705
#	85012
#	110995
#	147487
#	170270
#	195060
#	219012
#	220577
#	239945
#
# Disc length: 3755
#
# Revision: 1
# Processed by: cddbd v1.5.1PL0 Copyright (c) Steve Scherf et al.
# Submitted via: CDex 1.50
# Normalized: r0:TDELIM( - )
#
DISCID=880ea90a
DTITLE=Various Artist - Jazz Legends  Drum n' Bass Disc 1
DYEAR=2002
DGENRE=Jazz
TTITLE0=Sing sing sing - Benny Boodman featuring Gene Krupta
TTITLE1=Deciphering the message - Art Blakey
TTITLE2=Milestones - Miles Davis Quintet festuring Philly Joe Jones
TTITLE3=Byrdlike - V.S.O.P. featuring Lenny White
TTITLE4=Majestic Dance - Return to Forever featuring Lenny White
TTITLE5=La Cuna - Ray Barretto
TTITLE6=Just Kidding - Michel Camilo featuring giovanni Hidalgo
TTITLE7=Body Movement 1 - Leon Parker
TTITLE8=Bemsha Swing - Leon Parker
TTITLE9=The Impaler - Jeff "Tain" Watts
EXTD=YEAR: 2002
EXTT0=
EXTT1=
EXTT2=
EXTT3=
EXTT4=
EXTT5=
EXTT6=
EXTT7=
EXTT8=
EXTT9=
PLAYORDER=
